<svg width="31" height="22" viewBox="0 0 31 22" fill="none" xmlns="http://www.w3.org/2000/svg">
<g clip-path="url(#clip0_11503_3437)">
<path d="M30.3 7.28699L26.8 7.48699L23.6 2.58699C23.5 2.38699 23.2 2.28699 23 2.28699C22.8 2.28699 22.5 2.38699 22.4 2.58699L19.2 7.48699H15.7C15.3 7.48699 15 7.78699 15 8.18699C15 8.28699 15 8.28699 15 8.38699L16.9 15.187C17.1 15.887 17.6 16.287 18.3 16.287H27.7C28.4 16.287 28.9 15.887 29.1 15.187L31 8.28699C31 8.18699 31 8.18699 31 8.08699C31 7.68699 30.7 7.28699 30.3 7.28699ZM23 4.18699L25.2 7.38699H20.9L23 4.18699Z" fill="black"/>
</g>
<circle cx="10.5" cy="10.787" r="10.5" fill="white"/>
<defs>
<clipPath id="clip0_11503_3437">
<rect width="16" height="14" fill="white" transform="translate(15 2.28699)"/>
</clipPath>
</defs>
</svg>
